AmstelvarAlpha-XTRA-151.ufo
<glyph name="dollar" format="1">
  <advance width="639"/>
  <unicode hex="0024"/>
  <outline>
    <contour>
      <point x="23" y="253" type="qcurve"/>
      <point x="120" y="301" type="line"/>
      <point x="152" y="209"/>
      <point x="245" y="115"/>
      <point x="323" y="115" type="qcurve" smooth="yes"/>
      <point x="392" y="115"/>
      <point x="465" y="215"/>
      <point x="465" y="305" type="qcurve" smooth="yes"/>
      <point x="465" y="442"/>
      <point x="324" y="670"/>
      <point x="240" y="745" type="qcurve" smooth="yes"/>
      <point x="140" y="834"/>
      <point x="45" y="1050"/>
      <point x="45" y="1201" type="qcurve" smooth="yes"/>
      <point x="45" y="1337"/>
      <point x="191" y="1501"/>
      <point x="305" y="1501" type="qcurve" smooth="yes"/>
      <point x="386" y="1501"/>
      <point x="500" y="1424"/>
      <point x="539" y="1361" type="qcurve"/>
      <point x="453" y="1274" type="line"/>
      <point x="429" y="1316"/>
      <point x="358" y="1378"/>
      <point x="310" y="1378" type="qcurve" smooth="yes"/>
      <point x="254" y="1378"/>
      <point x="194" y="1311"/>
      <point x="194" y="1211" type="qcurve" smooth="yes"/>
      <point x="194" y="1124"/>
      <point x="286" y="959"/>
      <point x="374" y="884" type="qcurve"/>
      <point x="475" y="785"/>
      <point x="616" y="541"/>
      <point x="616" y="363" type="qcurve" smooth="yes"/>
      <point x="616" y="181"/>
      <point x="466" y="1"/>
      <point x="334" y="1" type="qcurve" smooth="yes"/>
      <point x="209" y="1"/>
      <point x="54" y="147"/>
    </contour>
    <contour>
      <point x="261" y="-169" type="line"/>
      <point x="261" y="52" type="line"/>
      <point x="267" y="52" type="line"/>
      <point x="267" y="74" type="line"/>
      <point x="391" y="66" type="line"/>
      <point x="391" y="52" type="line"/>
      <point x="399" y="52" type="line"/>
      <point x="399" y="-140" type="line"/>
    </contour>
    <contour>
      <point x="239" y="1570" type="line"/>
      <point x="378" y="1595" type="line"/>
      <point x="378" y="1439" type="line"/>
      <point x="370" y="1439" type="line"/>
      <point x="370" y="1410" type="line"/>
      <point x="246" y="1421" type="line"/>
      <point x="246" y="1439" type="line"/>
      <point x="239" y="1439" type="line"/>
    </contour>
  </outline>
</glyph>
<glyph name="zero" format="1">
  <advance width="675"/>
  <unicode hex="0030"/>
  <outline>
    <contour>
      <point x="28" y="754" type="qcurve" smooth="yes"/>
      <point x="28" y="1170"/>
      <point x="192" y="1520"/>
      <point x="338" y="1520" type="qcurve" smooth="yes"/>
      <point x="485" y="1520"/>
      <point x="646" y="1171"/>
      <point x="646" y="754" type="qcurve" smooth="yes"/>
      <point x="646" y="343"/>
      <point x="488" y="-24"/>
      <point x="341" y="-24" type="qcurve" smooth="yes"/>
      <point x="202" y="-24"/>
      <point x="28" y="321"/>
    </contour>
    <contour>
      <point x="212" y="762" type="qcurve" smooth="yes"/>
      <point x="213" y="326"/>
      <point x="271" y="97"/>
      <point x="337" y="97" type="qcurve" smooth="yes"/>
      <point x="407" y="97"/>
      <point x="462" y="294"/>
      <point x="462" y="752" type="qcurve" smooth="yes"/>
      <point x="463" y="1192"/>
      <point x="399" y="1390"/>
      <point x="338" y="1390" type="qcurve" smooth="yes"/>
      <point x="273" y="1390"/>
      <point x="212" y="1202"/>
    </contour>
  </outline>
</glyph>
<glyph name="one" format="1">
  <advance width="483"/>
  <unicode hex="0031"/>
  <outline>
    <contour>
      <point x="31" y="0" type="line"/>
      <point x="31" y="94" type="line"/>
      <point x="157" y="129" type="line"/>
      <point x="157" y="754" type="line"/>
      <point x="155" y="1352" type="line"/>
      <point x="29" y="1386" type="line"/>
      <point x="29" y="1490" type="line"/>
      <point x="307" y="1513" type="line"/>
      <point x="339" y="1478" type="line"/>
      <point x="333" y="754" type="line"/>
      <point x="333" y="129" type="line"/>
      <point x="459" y="94" type="line"/>
      <point x="459" y="0" type="line"/>
    </contour>
  </outline>
</glyph>
<glyph name="two" format="1">
  <advance width="504"/>
  <unicode hex="0032"/>
  <outline>
    <contour>
      <point x="6" y="0" type="line"/>
      <point x="6" y="122" type="line"/>
      <point x="13" y="250"/>
      <point x="82" y="499"/>
      <point x="151" y="636" type="qcurve" smooth="yes"/>
      <point x="221" y="776"/>
      <point x="272" y="992"/>
      <point x="272" y="1133" type="qcurve" smooth="yes"/>
      <point x="272" y="1290"/>
      <point x="212" y="1389"/>
      <point x="162" y="1389" type="qcurve" smooth="yes"/>
      <point x="117" y="1389"/>
      <point x="51" y="1346"/>
      <point x="19" y="1308" type="qcurve"/>
      <point x="19" y="1416" type="line"/>
      <point x="49" y="1457"/>
      <point x="156" y="1520"/>
      <point x="234" y="1520" type="qcurve" smooth="yes"/>
      <point x="346" y="1520"/>
      <point x="470" y="1324"/>
      <point x="470" y="1143" type="qcurve" smooth="yes"/>
      <point x="470" y="941"/>
      <point x="322" y="630"/>
      <point x="258" y="528" type="qcurve" smooth="yes"/>
      <point x="196" y="432"/>
      <point x="133" y="267"/>
      <point x="123" y="177" type="qcurve"/>
      <point x="127" y="166" type="line"/>
      <point x="496" y="166" type="line"/>
      <point x="496" y="0" type="line"/>
    </contour>
  </outline>
</glyph>
<glyph name="four" format="1">
  <advance width="648"/>
  <unicode hex="0034"/>
  <outline>
    <contour>
      <point x="22" y="431" type="line"/>
      <point x="2" y="533" type="line"/>
      <point x="356" y="1510" type="line"/>
      <point x="486" y="1510" type="line"/>
      <point x="518" y="1478" type="line"/>
      <point x="513" y="543" type="line"/>
      <point x="646" y="543" type="line"/>
      <point x="646" y="454" type="line"/>
      <point x="512" y="446" type="line"/>
      <point x="512" y="129" type="line"/>
      <point x="617" y="94" type="line"/>
      <point x="617" y="0" type="line"/>
      <point x="228" y="0" type="line"/>
      <point x="228" y="94" type="line"/>
      <point x="336" y="129" type="line"/>
      <point x="336" y="438" type="line"/>
    </contour>
    <contour>
      <point x="127" y="543" type="line"/>
      <point x="327" y="543" type="line"/>
      <point x="333" y="1104" type="line"/>
      <point x="121" y="553" type="line"/>
    </contour>
  </outline>
</glyph>
<glyph name="less" format="1">
  <advance width="457"/>
  <unicode hex="003C"/>
  <outline>
    <contour>
      <point x="26" y="634" type="qcurve"/>
      <point x="26" y="634"/>
      <point x="270" y="989"/>
      <point x="310" y="1043" type="qcurve" smooth="yes"/>
      <point x="351" y="1097"/>
      <point x="444" y="1040"/>
      <point x="410" y="982" type="qcurve" smooth="yes"/>
      <point x="329" y="846"/>
      <point x="202" y="635"/>
      <point x="202" y="635" type="qcurve"/>
      <point x="202" y="635"/>
      <point x="328" y="428"/>
      <point x="409" y="292" type="qcurve" smooth="yes"/>
      <point x="444" y="234"/>
      <point x="351" y="176"/>
      <point x="311" y="230" type="qcurve" smooth="yes"/>
      <point x="270" y="284"/>
      <point x="26" y="634"/>
    </contour>
  </outline>
</glyph>
<glyph name="equal" format="1">
  <advance width="668"/>
  <unicode hex="003D"/>
  <outline>
    <contour>
      <point x="89" y="376" type="line"/>
      <point x="89" y="538" type="line"/>
      <point x="334" y="534" type="line"/>
      <point x="579" y="538" type="line"/>
      <point x="579" y="376" type="line"/>
      <point x="334" y="380" type="line"/>
    </contour>
    <contour>
      <point x="89" y="694" type="line"/>
      <point x="89" y="856" type="line"/>
      <point x="334" y="852" type="line"/>
      <point x="579" y="856" type="line"/>
      <point x="579" y="694" type="line"/>
      <point x="334" y="698" type="line"/>
    </contour>
  </outline>
</glyph>
<glyph name="I" format="1">
  <advance width="427"/>
  <unicode hex="0049"/>
  <outline>
    <contour>
      <point x="31" y="0" type="line"/>
      <point x="31" y="100" type="line"/>
      <point x="124" y="135" type="line"/>
      <point x="126" y="754" type="line"/>
      <point x="124" y="1352" type="line"/>
      <point x="31" y="1386" type="line"/>
      <point x="31" y="1500" type="line"/>
      <point x="397" y="1500" type="line"/>
      <point x="397" y="1386" type="line"/>
      <point x="304" y="1352" type="line"/>
      <point x="302" y="754" type="line"/>
      <point x="304" y="136" type="line"/>
      <point x="397" y="100" type="line"/>
      <point x="397" y="0" type="line"/>
    </contour>
  </outline>
</glyph>
<glyph name="L" format="1">
  <advance width="717"/>
  <unicode hex="004C"/>
  <outline>
    <contour>
      <point x="31" y="0" type="line"/>
      <point x="31" y="100" type="line"/>
      <point x="121" y="134" type="line"/>
      <point x="123" y="754" type="line"/>
      <point x="121" y="1352" type="line"/>
      <point x="31" y="1386" type="line"/>
      <point x="31" y="1500" type="line"/>
      <point x="404" y="1500" type="line"/>
      <point x="404" y="1387" type="line"/>
      <point x="301" y="1352" type="line"/>
      <point x="299" y="754" type="line"/>
      <point x="301" y="135" type="line"/>
      <point x="327" y="108" type="line"/>
      <point x="539" y="108" type="line"/>
      <point x="616" y="332" type="line"/>
      <point x="717" y="332" type="line"/>
      <point x="675" y="0" type="line"/>
    </contour>
  </outline>
</glyph>
<glyph name="M" format="1">
  <advance width="1103"/>
  <unicode hex="004D"/>
  <outline>
    <contour>
      <point x="31" y="0" type="line"/>
      <point x="31" y="100" type="line"/>
      <point x="121" y="135" type="line"/>
      <point x="123" y="754" type="line"/>
      <point x="121" y="1352" type="line"/>
      <point x="31" y="1386" type="line"/>
      <point x="31" y="1500" type="line"/>
      <point x="361" y="1500" type="line"/>
      <point x="453" y="986" type="line"/>
      <point x="533" y="546" type="line"/>
      <point x="614" y="984" type="line"/>
      <point x="711" y="1500" type="line"/>
      <point x="1073" y="1500" type="line"/>
      <point x="1073" y="1386" type="line"/>
      <point x="983" y="1352" type="line"/>
      <point x="981" y="754" type="line"/>
      <point x="983" y="135" type="line"/>
      <point x="1073" y="100" type="line"/>
      <point x="1073" y="0" type="line"/>
      <point x="699" y="0" type="line"/>
      <point x="699" y="100" type="line"/>
      <point x="803" y="135" type="line"/>
      <point x="805" y="754" type="line"/>
      <point x="803" y="1339" type="line"/>
      <point x="703" y="754" type="line"/>
      <point x="579" y="-2" type="line"/>
      <point x="464" y="-2" type="line"/>
      <point x="343" y="750" type="line"/>
      <point x="244" y="1341" type="line"/>
      <point x="242" y="754" type="line"/>
      <point x="244" y="135" type="line"/>
      <point x="339" y="100" type="line"/>
      <point x="339" y="0" type="line"/>
    </contour>
  </outline>
</glyph>
<glyph name="P" format="1">
  <advance width="743"/>
  <unicode hex="0050"/>
  <outline>
    <contour>
      <point x="31" y="0" type="line"/>
      <point x="31" y="100" type="line"/>
      <point x="121" y="137" type="line"/>
      <point x="123" y="754" type="line"/>
      <point x="121" y="1352" type="line"/>
      <point x="31" y="1386" type="line"/>
      <point x="31" y="1500" type="line"/>
      <point x="408" y="1500" type="line" smooth="yes"/>
      <point x="563" y="1500"/>
      <point x="725" y="1295"/>
      <point x="725" y="1080" type="qcurve" smooth="yes"/>
      <point x="725" y="867"/>
      <point x="553" y="622"/>
      <point x="405" y="622" type="qcurve" smooth="yes"/>
      <point x="337" y="622"/>
      <point x="247" y="642"/>
      <point x="219" y="650" type="qcurve"/>
      <point x="228" y="756" type="line"/>
      <point x="287" y="743"/>
      <point x="336" y="734"/>
      <point x="380" y="734" type="qcurve" smooth="yes"/>
      <point x="455" y="734"/>
      <point x="538" y="893"/>
      <point x="538" y="1082" type="qcurve" smooth="yes"/>
      <point x="538" y="1249"/>
      <point x="459" y="1382"/>
      <point x="389" y="1382" type="qcurve" smooth="yes"/>
      <point x="324" y="1382" type="line"/>
      <point x="299" y="1360" type="line"/>
      <point x="299" y="764" type="line"/>
      <point x="301" y="132" type="line"/>
      <point x="397" y="100" type="line"/>
      <point x="397" y="0" type="line"/>
    </contour>
  </outline>
</glyph>
<glyph name="R" format="1">
  <advance width="797"/>
  <unicode hex="0052"/>
  <outline>
    <contour>
      <point x="31" y="0" type="line"/>
      <point x="31" y="100" type="line"/>
      <point x="121" y="136" type="line"/>
      <point x="123" y="754" type="line"/>
      <point x="121" y="1352" type="line"/>
      <point x="31" y="1386" type="line"/>
      <point x="31" y="1500" type="line"/>
      <point x="404" y="1500" type="line" smooth="yes"/>
      <point x="548" y="1500"/>
      <point x="687" y="1342"/>
      <point x="687" y="1161" type="qcurve" smooth="yes"/>
      <point x="687" y="974"/>
      <point x="545" y="762"/>
      <point x="417" y="762" type="qcurve" smooth="yes"/>
      <point x="353" y="762"/>
      <point x="256" y="767"/>
      <point x="211" y="775" type="qcurve"/>
      <point x="208" y="869" type="line"/>
      <point x="298" y="869" type="line"/>
      <point x="368" y="869" type="line" smooth="yes"/>
      <point x="444" y="869"/>
      <point x="500" y="997"/>
      <point x="500" y="1147" type="qcurve" smooth="yes"/>
      <point x="500" y="1290"/>
      <point x="447" y="1382"/>
      <point x="387" y="1382" type="qcurve" smooth="yes"/>
      <point x="321" y="1382" type="line"/>
      <point x="303" y="1365" type="line"/>
      <point x="299" y="747" type="line"/>
      <point x="301" y="136" type="line"/>
      <point x="392" y="100" type="line"/>
      <point x="392" y="0" type="line"/>
    </contour>
    <contour>
      <point x="358" y="806" type="line"/>
      <point x="512" y="842" type="line"/>
      <point x="686" y="211" type="line"/>
      <point x="718" y="145"/>
      <point x="770" y="107"/>
      <point x="805" y="100" type="qcurve"/>
      <point x="805" y="0" type="line"/>
      <point x="622" y="0" type="line"/>
      <point x="573" y="44" type="line"/>
    </contour>
  </outline>
</glyph>
<glyph name="Z" format="1">
  <advance width="640"/>
  <unicode hex="005A"/>
  <outline>
    <contour>
      <point x="39" y="0" type="line"/>
      <point x="9" y="92" type="line"/>
      <point x="243" y="782" type="line"/>
      <point x="429" y="1374" type="line"/>
      <point x="420" y="1382" type="line"/>
      <point x="191" y="1382" type="line"/>
      <point x="155" y="1127" type="line"/>
      <point x="47" y="1127" type="line"/>
      <point x="47" y="1500" type="line"/>
      <point x="610" y="1500" type="line"/>
      <point x="610" y="1410" type="line"/>
      <point x="392" y="735" type="line"/>
      <point x="203" y="120" type="line"/>
      <point x="213" y="108" type="line"/>
      <point x="464" y="108" type="line"/>
      <point x="540" y="322" type="line"/>
      <point x="636" y="322" type="line"/>
      <point x="596" y="0" type="line"/>
    </contour>
  </outline>
</glyph>
<glyph name="backslash" format="1">
  <advance width="378"/>
  <unicode hex="005C"/>
  <outline>
    <contour>
      <point x="-2" y="1518" type="line"/>
      <point x="108" y="1534" type="line"/>
      <point x="390" y="-139" type="line"/>
      <point x="280" y="-155" type="line"/>
    </contour>
  </outline>
</glyph>
<glyph name="bracketright" format="1">
  <advance width="416"/>
  <unicode hex="005D"/>
  <outline>
    <contour>
      <point x="344" y="508" type="line"/>
      <point x="356" y="-342" type="line"/>
      <point x="375" y="-362" type="line"/>
      <point x="375" y="-480" type="line"/>
      <point x="31" y="-480" type="line"/>
      <point x="31" y="-361" type="line"/>
      <point x="176" y="-342" type="line"/>
      <point x="188" y="508" type="line"/>
      <point x="176" y="1362" type="line"/>
      <point x="31" y="1381" type="line"/>
      <point x="31" y="1500" type="line"/>
      <point x="375" y="1500" type="line"/>
      <point x="375" y="1382" type="line"/>
      <point x="356" y="1362" type="line"/>
    </contour>
  </outline>
</glyph>
<glyph name="h" format="1">
  <advance width="745"/>
  <unicode hex="0068"/>
  <outline>
    <contour>
      <point x="27" y="0" type="line"/>
      <point x="27" y="80" type="line"/>
      <point x="101" y="115" type="line"/>
      <point x="103" y="527" type="line"/>
      <point x="101" y="1376" type="line"/>
      <point x="13" y="1406" type="line"/>
      <point x="13" y="1500" type="line"/>
      <point x="211" y="1534" type="line"/>
      <point x="243" y="1534" type="line"/>
      <point x="271" y="1502" type="line"/>
      <point x="269" y="527" type="line"/>
      <point x="271" y="115" type="line"/>
      <point x="334" y="80" type="line"/>
      <point x="334" y="0" type="line"/>
    </contour>
    <contour>
      <point x="268" y="806" type="qcurve"/>
      <point x="232" y="842" type="line"/>
      <point x="259" y="918"/>
      <point x="382" y="1021"/>
      <point x="464" y="1021" type="qcurve" smooth="yes"/>
      <point x="554" y="1021"/>
      <point x="643" y="930"/>
      <point x="643" y="856" type="qcurve" smooth="yes"/>
      <point x="643" y="811"/>
      <point x="640" y="527"/>
      <point x="640" y="527" type="qcurve"/>
      <point x="645" y="115" type="line"/>
      <point x="720" y="80" type="line"/>
      <point x="720" y="0" type="line"/>
      <point x="409" y="0" type="line"/>
      <point x="409" y="80" type="line"/>
      <point x="475" y="115" type="line"/>
      <point x="477" y="527" type="line"/>
      <point x="477" y="789" type="line" smooth="yes"/>
      <point x="477" y="827"/>
      <point x="434" y="877"/>
      <point x="391" y="877" type="qcurve" smooth="yes"/>
      <point x="358" y="877"/>
      <point x="292" y="843"/>
    </contour>
  </outline>
</glyph>
<glyph name="k" format="1">
  <advance width="714"/>
  <unicode hex="006B"/>
  <outline>
    <contour>
      <point x="27" y="0" type="line"/>
      <point x="27" y="80" type="line"/>
      <point x="101" y="115" type="line"/>
      <point x="103" y="527" type="line"/>
      <point x="101" y="1376" type="line"/>
      <point x="17" y="1406" type="line"/>
      <point x="17" y="1500" type="line"/>
      <point x="211" y="1534" type="line"/>
      <point x="243" y="1534" type="line"/>
      <point x="271" y="1502" type="line"/>
      <point x="269" y="507" type="line"/>
      <point x="271" y="115" type="line"/>
      <point x="334" y="80" type="line"/>
      <point x="334" y="0" type="line"/>
    </contour>
    <contour>
      <point x="238" y="309" type="line"/>
      <point x="230" y="529" type="line"/>
      <point x="447" y="880" type="line"/>
      <point x="369" y="910" type="line"/>
      <point x="369" y="1000" type="line"/>
      <point x="677" y="1000" type="line"/>
      <point x="677" y="910" type="line"/>
      <point x="588" y="875" type="line"/>
    </contour>
    <contour>
      <point x="304" y="575" type="line"/>
      <point x="417" y="751" type="line"/>
      <point x="651" y="115" type="line"/>
      <point x="718" y="80" type="line"/>
      <point x="718" y="0" type="line"/>
      <point x="543" y="0" type="line"/>
      <point x="509" y="25" type="line"/>
      <point x="465" y="115" type="line"/>
    </contour>
  </outline>
</glyph>
<glyph name="o" format="1">
  <advance width="678"/>
  <unicode hex="006F"/>
  <outline>
    <contour>
      <point x="24" y="500" type="qcurve" smooth="yes"/>
      <point x="24" y="754"/>
      <point x="196" y="1022"/>
      <point x="338" y="1022" type="qcurve" smooth="yes"/>
      <point x="481" y="1022"/>
      <point x="655" y="768"/>
      <point x="655" y="506" type="qcurve" smooth="yes"/>
      <point x="655" y="248"/>
      <point x="488" y="-22"/>
      <point x="341" y="-22" type="qcurve" smooth="yes"/>
      <point x="195" y="-22"/>
      <point x="24" y="241"/>
    </contour>
    <contour>
      <point x="203" y="520" type="qcurve" smooth="yes"/>
      <point x="203" y="287"/>
      <point x="264" y="88"/>
      <point x="338" y="88" type="qcurve" smooth="yes"/>
      <point x="414" y="88"/>
      <point x="475" y="261"/>
      <point x="473" y="506" type="qcurve" smooth="yes"/>
      <point x="471" y="746"/>
      <point x="408" y="906"/>
      <point x="338" y="906" type="qcurve" smooth="yes"/>
      <point x="265" y="906"/>
      <point x="203" y="753"/>
    </contour>
  </outline>
</glyph>
<glyph name="r" format="1">
  <advance width="553"/>
  <unicode hex="0072"/>
  <outline>
    <contour>
      <point x="27" y="0" type="line"/>
      <point x="27" y="80" type="line"/>
      <point x="102" y="115" type="line"/>
      <point x="104" y="527" type="line"/>
      <point x="102" y="849" type="line"/>
      <point x="27" y="879" type="line"/>
      <point x="27" y="973" type="line"/>
      <point x="212" y="1007" type="line"/>
      <point x="247" y="980" type="line"/>
      <point x="272" y="879" type="line"/>
      <point x="270" y="527" type="line"/>
      <point x="272" y="115" type="line"/>
      <point x="353" y="80" type="line"/>
      <point x="353" y="0" type="line"/>
    </contour>
    <contour>
      <point x="212" y="730" type="qcurve"/>
      <point x="178" y="791" type="line"/>
      <point x="202" y="879"/>
      <point x="354" y="1000"/>
      <point x="474" y="1000" type="qcurve" smooth="yes"/>
      <point x="538" y="1000" type="line"/>
      <point x="538" y="745" type="line"/>
      <point x="438" y="745" type="line"/>
      <point x="413" y="867" type="line"/>
      <point x="356" y="867"/>
      <point x="253" y="802"/>
    </contour>
  </outline>
</glyph>
<glyph name="asciitilde" format="1">
  <advance width="668"/>
  <unicode hex="007E"/>
  <outline>
    <contour>
      <point x="12" y="601" type="line"/>
      <point x="52" y="694"/>
      <point x="170" y="806"/>
      <point x="227" y="806" type="qcurve"/>
      <point x="443" y="702" type="line"/>
      <point x="482" y="702"/>
      <point x="549" y="760"/>
      <point x="570" y="806" type="qcurve"/>
      <point x="657" y="746" type="line"/>
      <point x="624" y="642"/>
      <point x="523" y="516"/>
      <point x="444" y="516" type="qcurve"/>
      <point x="237" y="615" type="line"/>
      <point x="197" y="615"/>
      <point x="125" y="570"/>
      <point x="90" y="532" type="qcurve"/>
    </contour>
  </outline>
</glyph>
